<?xml version="1.0" encoding="utf-8"?>
<!-- Generator: Adobe Illustrator 25.0.0, SVG Export Plug-In . SVG Version: 6.00 Build 0)  -->
<svg version="1.1" id="Layer_1" xmlns="http://www.w3.org/2000/svg" xmlns:xlink="http://www.w3.org/1999/xlink" x="0px" y="0px"
	 viewBox="0 0 512 512" enable-background="new 0 0 512 512" xml:space="preserve">
<g>
	
		<path fill="none" stroke="#197056" stroke-width="8.4064" stroke-linecap="round" stroke-linejoin="round" stroke-miterlimit="10" d="
		M506,504.371V329.854c0,0-5.435-109.903-119.565-140.097c0,0-30.193,32.609-41.667,40.459c0,0-16.908,16.304-18.72,30.797
		c0,0-12.077,58.575-74.879,57.367c0,0-63.406,2.415-71.86-78.502c0,0,0-35.628,12.681-56.159h-30.193
		c0,0-137.681-3.019-155.797,160.326c0,0-0.604,147.645,155.797,160.326H506z"/>
	
		<circle fill="none" stroke="#197056" stroke-width="8.4064" stroke-linecap="round" stroke-linejoin="round" stroke-miterlimit="10" cx="256" cy="404.117" r="44.988"/>
	
		<path fill="none" stroke="#197056" stroke-width="8.4064" stroke-linecap="round" stroke-linejoin="round" stroke-miterlimit="10" d="
		M262.659,60.743c0,0,47.403,2.877,46.992,41.103c0,0,7.399,20.962-39.048,56.722c0,0-49.323,36.171-47.268,73.574
		c0,0-2.055,41.514,29.594,41.925c0,0,26.306,1.233,30.827-25.484c0,0,8.262-34.115,26.327-47.268c0,0,73.553-46.446,69.032-99.058
		c0,0,3.84-89.604-116.456-94.537c0,0-71.384-4.932-110.021,57.544c0,0-39.459,61.654,20.551,73.574c0,0,27.539,3.288,33.704-30.416
		C206.894,108.422,216.078,60.743,262.659,60.743z"/>
</g>
</svg>
