<?xml version="1.0" encoding="utf-8"?>
<!-- Generator: Adobe Illustrator 17.0.0, SVG Export Plug-In . SVG Version: 6.00 Build 0)  -->
<!DOCTYPE svg PUBLIC "-//W3C//DTD SVG 1.1//EN" "http://www.w3.org/Graphics/SVG/1.1/DTD/svg11.dtd">
<svg version="1.1" id="Layer_1" xmlns="http://www.w3.org/2000/svg" xmlns:xlink="http://www.w3.org/1999/xlink" x="0px" y="0px"
	 width="500px" height="500px" viewBox="0 0 510 510" enable-background="new 0 0 500 500" xml:space="preserve">
<polygon fill="none" stroke="#00826A" stroke-width="8" stroke-miterlimit="10" points="309.523,256.393 193.485,256.393 
	346.73,1.883 412.125,95.885 "/>
<polygon fill="none" stroke="#00826A" stroke-width="8" stroke-miterlimit="10" points="193.482,256.393 251.505,160.029 
	156.283,1.883 90.889,95.885 193.489,256.393 251.505,256.393 "/>
<line fill="none" stroke="#00826A" stroke-width="8" stroke-miterlimit="10" x1="155.953" y1="1" x2="346.333" y2="1"/>
<line fill="none" stroke="#00826A" stroke-width="8" stroke-miterlimit="10" x1="193.482" y1="256.393" x2="193.482" y2="297.04"/>
<line fill="none" stroke="#00826A" stroke-width="8" stroke-miterlimit="10" x1="309.523" y1="256.393" x2="309.213" y2="296.845"/>
<path fill="none" stroke="#00826A" stroke-width="8" stroke-miterlimit="10" d="M361.272,389.23
	c0,60.625-49.145,109.77-109.763,109.77c-60.625,0-109.77-49.145-109.77-109.77s49.145-109.763,109.77-109.763
	C312.127,279.468,361.272,328.606,361.272,389.23z"/>
<circle fill="none" stroke="#00826A" stroke-width="8" stroke-miterlimit="10" cx="251.504" cy="389.23" r="80.207"/>
<polygon fill="none" stroke="#00826A" stroke-width="8" stroke-miterlimit="10" points="251.507,328.81 269.519,365.318 
	309.81,371.174 280.658,399.588 287.539,439.715 251.507,420.77 215.466,439.715 222.355,399.588 193.195,371.174 233.486,365.318 
	"/>
</svg>
