<?xml version="1.0" encoding="utf-8"?>
<!-- Generator: Adobe Illustrator 17.0.0, SVG Export Plug-In . SVG Version: 6.00 Build 0)  -->
<!DOCTYPE svg PUBLIC "-//W3C//DTD SVG 1.1//EN" "http://www.w3.org/Graphics/SVG/1.1/DTD/svg11.dtd">
<svg version="1.1" id="Layer_1" xmlns="http://www.w3.org/2000/svg" xmlns:xlink="http://www.w3.org/1999/xlink" x="0px" y="0px"
	 width="500px" height="500px" viewBox="0 0 510 510" enable-background="new 0 0 500 500" xml:space="preserve">
<polyline fill="none" stroke="#00826A" stroke-width="8" stroke-miterlimit="10" points="98.159,273.759 98.159,499 493.5,499 
	493.5,1 267.609,1 "/>
<path fill="none" stroke="#00826A" stroke-width="8" stroke-miterlimit="10" d="M208.627,1.223H84.367
	c-32.437,0-58.982,26.139-58.982,58.08v122.359c0,31.941,26.545,58.08,58.982,58.08H136.6c9.399,15.705,22.621,29.492,39.427,39.79
	c6.117,3.742,12.465,6.768,18.922,9.301c-15.315-13.613-26.313-30.625-32.662-49.091h46.339c32.446,0,58.982-26.139,58.982-58.08
	V59.303C267.611,27.362,241.073,1.223,208.627,1.223z"/>
<path fill="none" stroke="#00826A" stroke-width="8" stroke-miterlimit="10" d="M156.644,79.749l-5.206,74.735h-8.573l-5.197-74.735
	V51.343h18.977v28.405L156.644,79.749L156.644,79.749z M156.644,191.46h-18.977v-18.686h18.977V191.46z"/>
</svg>
