<?xml version="1.0" encoding="utf-8"?>
<!-- Generator: Adobe Illustrator 24.0.1, SVG Export Plug-In . SVG Version: 6.00 Build 0)  -->
<svg version="1.1" id="Layer_1" xmlns="http://www.w3.org/2000/svg" xmlns:xlink="http://www.w3.org/1999/xlink" x="0px" y="0px"
	 viewBox="0 0 500 500" style="enable-background:new 0 0 500 500;" xml:space="preserve">
<style type="text/css">
	.st0{fill:none;stroke:#00826A;stroke-width:7.8431;stroke-miterlimit:9.8039;}
</style>
<g>
	<path class="st0" d="M69,494.3L69,494.3c-28.5,0-51.8-23.3-51.8-51.8v-329c0-28.5,23.3-51.8,51.8-51.8s51.8,0.3,51.8,0.3v380.4
		C120.8,471,97.5,494.3,69,494.3z"/>
	<path class="st0" d="M431,5.7H172.4c-28.4,0-51.7,23.3-51.7,51.7v4.7v380.1c0,28.5-23.3,51.7-51.7,51.7h362
		c28.4,0,51.7-23.3,51.7-51.7V57.4C482.8,29,459.5,5.7,431,5.7z"/>
	<rect x="171.3" y="164.1" class="st0" width="107.1" height="107.1"/>
	<line class="st0" x1="301.2" y1="170.3" x2="445.1" y2="170.3"/>
	<line class="st0" x1="301.2" y1="221" x2="445.1" y2="221"/>
	<line class="st0" x1="301.2" y1="271.2" x2="445.1" y2="271.2"/>
	<line class="st0" x1="171.3" y1="321.4" x2="445.1" y2="321.4"/>
	<line class="st0" x1="171.3" y1="371.6" x2="445.1" y2="371.6"/>
	<line class="st0" x1="171.3" y1="68.7" x2="445.1" y2="68.7"/>
	<line class="st0" x1="171.3" y1="118.8" x2="445.1" y2="118.8"/>
	<line class="st0" x1="171.3" y1="421.7" x2="445.1" y2="421.7"/>
</g>
</svg>
