<svg xmlns="http://www.w3.org/2000/svg" xmlns:xlink="http://www.w3.org/1999/xlink" id="Layer_1" x="0" y="0" version="1.1" viewBox="0 0 500 500" style="enable-background:new 0 0 500 500" xml:space="preserve"><style type="text/css">.st0{fill:none;stroke:#008268;stroke-width:40;stroke-miterlimit:10}</style><path d="M245,21.7c13.5,0,27,1.3,40.5,3.8c-74,21.8-125,89.5-125,167c0,96.1,78.2,174.3,174.3,174.3	c40,0,78.6-13.8,109.8-39.1c-16.4,37-42.5,68.7-76.1,91.8C332.1,444.7,289.4,458,245,458c-29.5,0-58.1-5.8-84.9-17.2	c-25.9-11-49.3-26.7-69.3-46.7c-20.1-20.1-35.8-43.4-46.7-69.3c-11.5-26.9-17.2-55.5-17.2-85c0-29.5,5.8-58.1,17.2-84.9	c11-26,26.7-49.3,46.7-69.4s43.4-35.8,69.3-46.7C187,27.5,215.6,21.7,245,21.7" class="st0"/></svg>