<?xml version="1.0" encoding="utf-8"?>
<!-- Generator: Adobe Illustrator 25.0.0, SVG Export Plug-In . SVG Version: 6.00 Build 0)  -->
<svg version="1.1" id="Layer_1" xmlns="http://www.w3.org/2000/svg" xmlns:xlink="http://www.w3.org/1999/xlink" x="0px" y="0px"
	 viewBox="0 0 500 500" style="enable-background:new 0 0 500 500;" xml:space="preserve">
<style type="text/css">
	.st0{fill:none;stroke:#08826A;stroke-width:8;stroke-miterlimit:10;}
	.st1{fill:#08826A;stroke:#08826A;stroke-width:8;stroke-miterlimit:10;}
</style>
<ellipse class="st0" cx="249" cy="250" rx="241.9" ry="242"/>
<g>
	<path class="st1" d="M255.8,215.5c0-9,0-18.1,0-27.1c0-17.4-0.1-34.8-0.1-52.1c0-0.5,0-1,0-1.5c0.1-2.5,0.4-2.8,2.9-2.8
		c9.2,0,18.3,0,27.5,0c2.7,0,5.4,0.2,8.1,0.1c1.9,0,2.3,0.8,2.4,2.5c1.5,25.9,19.1,46.7,44.2,52.5c3.2,0.7,6.4,1.1,9.7,1.4
		c1.7,0.2,2.5,0.7,2.5,2.5c0,11.9,0,23.8,0,35.8c0,1.6-0.5,2.5-2.3,2.4c-18.8-0.8-36.3-5.9-51.9-16.7c-0.5-0.4-1.2-0.6-1.8-0.8
		c-0.2,0.7-0.7,1.5-0.7,2.2c0,4.8,0.2,9.5,0.2,14.3c0,20.5,0,40.9,0,61.4c0,8.6-0.5,17.1-3.1,25.3c-8.8,27.2-27,44.3-54.8,51.1
		c-13,3.2-26,3.5-38.7-1.1c-19-6.9-34.5-18.1-44-36.4C136,290,151.4,246,187,227c13.4-7.1,27.6-9.7,42.6-8.1
		c1.7,0.2,2.4,0.8,2.4,2.6c-0.1,12.3,0,24.6,0,36.9c0,2.1-0.2,2.2-2.2,1.7c-19.9-4.9-39.8,9.2-41.8,29.5
		c-1.7,17.8,10.9,34.3,28.2,36.9c18.2,2.7,34.9-8.6,38.7-26.4c0.5-2.6,0.7-5.2,0.7-7.8c0.1-25,0-50,0-74.9c0-0.6,0-1.3,0-1.9
		C255.8,215.5,255.8,215.5,255.8,215.5z"/>
</g>
</svg>
